<svg xmlns="http://www.w3.org/2000/svg" width="1649" height="565" viewBox="0 0 1649 565" fill="none">
  <g opacity="0.2" filter="url(#filter0_dd_20_26)">
    <mask id="path-1-inside-1_20_26" fill="white">
      <path fill-rule="evenodd" clip-rule="evenodd" d="M100.792 424.854C63.0521 440.644 19.501 431.854 -9.1604 402.663L-33.047 378.335C-88.6055 321.75 -59.3467 226.103 18.3604 210.285L41.864 205.5L128 180L183.083 167.173C193.521 164.742 203.464 160.538 212.479 154.742C242.682 135.324 277.832 125 313.739 125H351.733C359.346 125 366.934 125.869 374.35 127.591L447.586 144.596C460.113 147.505 473.084 147.97 485.787 145.966L618.681 125L749.874 100.055C770.572 96.119 789.498 85.7468 803.952 70.418L823.261 49.9394C839.079 33.1636 860.208 22.3694 883.071 19.3843L956.767 9.76221C965.724 8.59283 974.797 8.64227 983.74 9.90912L1072.43 22.4725C1079.59 23.4879 1086.85 23.722 1094.07 23.1708L1284.97 8.5921C1290.13 8.198 1295.31 8.20514 1300.47 8.61346L1441.96 19.811C1475.06 22.4305 1504.7 41.3073 1521.07 70.193L1573.95 163.5L1663.36 337.478C1690.45 390.185 1666.02 454.753 1610.83 476.327L1476.99 528.642C1454.92 537.266 1430.52 537.778 1408.11 530.086L1360.24 513.65C1333.11 504.335 1303.28 507.12 1278.35 521.297L1267.93 527.22C1226.28 550.897 1173.69 541.708 1142.53 505.312L1094.92 449.686C1087.17 440.635 1077.87 433.041 1067.45 427.262L962.109 368.836C943.556 358.546 922.212 354.423 901.161 357.063L798.024 370H681.995C672.382 370 662.819 371.386 653.602 374.116L564.5 400.5L493.016 411.083C475.679 413.649 457.972 411.614 441.669 405.182L377.851 380.002C361.253 373.454 343.205 371.465 325.579 374.243L170.907 398.623C162.998 399.87 155.267 402.062 147.88 405.153L100.792 424.854ZM1244.01 134.017C1174.98 134.017 1119.01 189.981 1119.01 259.017C1119.01 328.052 1174.98 384.017 1244.01 384.017C1313.05 384.017 1369.01 328.052 1369.01 259.017C1369.01 189.981 1313.05 134.017 1244.01 134.017Z"/>
    </mask>
    <path fill-rule="evenodd" clip-rule="evenodd" d="M100.792 424.854C63.0521 440.644 19.501 431.854 -9.1604 402.663L-33.047 378.335C-88.6055 321.75 -59.3467 226.103 18.3604 210.285L41.864 205.5L128 180L183.083 167.173C193.521 164.742 203.464 160.538 212.479 154.742C242.682 135.324 277.832 125 313.739 125H351.733C359.346 125 366.934 125.869 374.35 127.591L447.586 144.596C460.113 147.505 473.084 147.97 485.787 145.966L618.681 125L749.874 100.055C770.572 96.119 789.498 85.7468 803.952 70.418L823.261 49.9394C839.079 33.1636 860.208 22.3694 883.071 19.3843L956.767 9.76221C965.724 8.59283 974.797 8.64227 983.74 9.90912L1072.43 22.4725C1079.59 23.4879 1086.85 23.722 1094.07 23.1708L1284.97 8.5921C1290.13 8.198 1295.31 8.20514 1300.47 8.61346L1441.96 19.811C1475.06 22.4305 1504.7 41.3073 1521.07 70.193L1573.95 163.5L1663.36 337.478C1690.45 390.185 1666.02 454.753 1610.83 476.327L1476.99 528.642C1454.92 537.266 1430.52 537.778 1408.11 530.086L1360.24 513.65C1333.11 504.335 1303.28 507.12 1278.35 521.297L1267.93 527.22C1226.28 550.897 1173.69 541.708 1142.53 505.312L1094.92 449.686C1087.17 440.635 1077.87 433.041 1067.45 427.262L962.109 368.836C943.556 358.546 922.212 354.423 901.161 357.063L798.024 370H681.995C672.382 370 662.819 371.386 653.602 374.116L564.5 400.5L493.016 411.083C475.679 413.649 457.972 411.614 441.669 405.182L377.851 380.002C361.253 373.454 343.205 371.465 325.579 374.243L170.907 398.623C162.998 399.87 155.267 402.062 147.88 405.153L100.792 424.854ZM1244.01 134.017C1174.98 134.017 1119.01 189.981 1119.01 259.017C1119.01 328.052 1174.98 384.017 1244.01 384.017C1313.05 384.017 1369.01 328.052 1369.01 259.017C1369.01 189.981 1313.05 134.017 1244.01 134.017Z" fill="url(#paint0_linear_20_26)"/>
    <path d="M-9.1604 402.663L-9.51718 403.014L-9.51717 403.014L-9.1604 402.663ZM100.792 424.854L100.985 425.315L100.985 425.315L100.792 424.854ZM-33.047 378.335L-32.6902 377.985L-33.047 378.335ZM18.3604 210.285L18.4601 210.775L18.4601 210.775L18.3604 210.285ZM41.864 205.5L41.9638 205.99L41.9851 205.986L42.0059 205.979L41.864 205.5ZM128 180L127.887 179.513L127.872 179.516L127.858 179.521L128 180ZM183.083 167.173L182.969 166.686L182.969 166.686L183.083 167.173ZM212.479 154.742L212.75 155.162L212.75 155.162L212.479 154.742ZM374.35 127.591L374.237 128.078L374.237 128.078L374.35 127.591ZM447.586 144.596L447.473 145.083L447.473 145.083L447.586 144.596ZM485.787 145.966L485.865 146.46L485.865 146.46L485.787 145.966ZM618.681 125L618.759 125.494L618.767 125.493L618.774 125.491L618.681 125ZM749.874 100.055L749.968 100.546L749.968 100.546L749.874 100.055ZM803.952 70.418L803.588 70.075L803.588 70.075L803.952 70.418ZM823.261 49.9394L823.625 50.2824L823.625 50.2824L823.261 49.9394ZM883.071 19.3843L883.007 18.8885L883.007 18.8885L883.071 19.3843ZM956.767 9.76221L956.703 9.26642L956.703 9.26642L956.767 9.76221ZM983.74 9.90912L983.81 9.41406L983.81 9.41406L983.74 9.90912ZM1072.43 22.4725L1072.5 21.9775L1072.5 21.9775L1072.43 22.4725ZM1094.07 23.1708L1094.03 22.6722L1094.03 22.6722L1094.07 23.1708ZM1284.97 8.5921L1284.93 8.09355L1284.93 8.09355L1284.97 8.5921ZM1300.47 8.61346L1300.51 8.11502L1300.51 8.11502L1300.47 8.61346ZM1441.96 19.811L1442 19.3126L1442 19.3126L1441.96 19.811ZM1521.07 70.193L1520.63 70.4395L1520.63 70.4395L1521.07 70.193ZM1573.95 163.5L1574.39 163.271L1574.39 163.262L1574.38 163.253L1573.95 163.5ZM1663.36 337.478L1662.92 337.707L1662.92 337.707L1663.36 337.478ZM1610.83 476.327L1611.01 476.793L1611.01 476.793L1610.83 476.327ZM1476.99 528.642L1476.8 528.177L1476.8 528.177L1476.99 528.642ZM1408.11 530.086L1407.95 530.558L1407.95 530.558L1408.11 530.086ZM1360.24 513.65L1360.4 513.177L1360.4 513.177L1360.24 513.65ZM1278.35 521.297L1278.59 521.732L1278.59 521.732L1278.35 521.297ZM1267.93 527.22L1267.68 526.785L1267.68 526.785L1267.93 527.22ZM1142.53 505.312L1142.91 504.987L1142.91 504.987L1142.53 505.312ZM1094.92 449.686L1094.54 450.011L1094.54 450.011L1094.92 449.686ZM1067.45 427.262L1067.7 426.825L1067.7 426.825L1067.45 427.262ZM962.109 368.836L962.352 368.398L962.352 368.398L962.109 368.836ZM901.161 357.063L901.224 357.56L901.224 357.56L901.161 357.063ZM798.024 370V370.5H798.055L798.086 370.496L798.024 370ZM653.602 374.116L653.46 373.636L653.46 373.636L653.602 374.116ZM564.5 400.5L564.573 400.995L564.608 400.989L564.642 400.979L564.5 400.5ZM493.016 411.083L492.942 410.588L492.942 410.588L493.016 411.083ZM441.669 405.182L441.486 405.647L441.486 405.647L441.669 405.182ZM377.851 380.002L378.035 379.537L378.035 379.537L377.851 380.002ZM325.579 374.243L325.502 373.749L325.502 373.749L325.579 374.243ZM170.907 398.623L170.829 398.129L170.829 398.129L170.907 398.623ZM147.88 405.153L147.687 404.691L147.687 404.691L147.88 405.153ZM-9.51717 403.014C19.2875 432.35 63.0564 441.184 100.985 425.315L100.599 424.393C63.0478 440.104 19.7144 431.358 -8.80363 402.313L-9.51717 403.014ZM-33.4038 378.686L-9.51718 403.014L-8.80363 402.313L-32.6902 377.985L-33.4038 378.686ZM18.2606 209.795C-59.835 225.692 -89.24 321.818 -33.4038 378.686L-32.6902 377.985C-87.9709 321.683 -58.8584 226.514 18.4601 210.775L18.2606 209.795ZM41.7643 205.01L18.2606 209.795L18.4601 210.775L41.9638 205.99L41.7643 205.01ZM127.858 179.521L41.7221 205.021L42.0059 205.979L128.142 180.479L127.858 179.521ZM182.969 166.686L127.887 179.513L128.114 180.487L183.196 167.66L182.969 166.686ZM212.209 154.321C203.242 160.086 193.352 164.268 182.969 166.686L183.196 167.66C193.69 165.216 203.686 160.989 212.75 155.162L212.209 154.321ZM313.739 124.5C277.736 124.5 242.493 134.852 212.209 154.321L212.75 155.162C242.872 135.797 277.928 125.5 313.739 125.5V124.5ZM351.733 124.5H313.739V125.5H351.733V124.5ZM374.463 127.104C367.01 125.374 359.384 124.5 351.733 124.5V125.5C359.308 125.5 366.858 126.365 374.237 128.078L374.463 127.104ZM447.699 144.109L374.463 127.104L374.237 128.078L447.473 145.083L447.699 144.109ZM485.709 145.472C473.069 147.466 460.164 147.003 447.699 144.109L447.473 145.083C460.063 148.006 473.098 148.474 485.865 146.46L485.709 145.472ZM618.603 124.506L485.709 145.472L485.865 146.46L618.759 125.494L618.603 124.506ZM749.781 99.5633L618.588 124.509L618.774 125.491L749.968 100.546L749.781 99.5633ZM803.588 70.075C789.206 85.3272 770.375 95.6474 749.781 99.5633L749.968 100.546C770.769 96.5905 789.789 86.1665 804.315 70.761L803.588 70.075ZM822.897 49.5963L803.588 70.075L804.315 70.761L823.625 50.2824L822.897 49.5963ZM883.007 18.8885C860.029 21.8886 838.794 32.7367 822.897 49.5963L823.625 50.2824C839.364 33.5905 860.387 22.8503 883.136 19.8801L883.007 18.8885ZM956.703 9.26642L883.007 18.8885L883.136 19.8801L956.832 10.258L956.703 9.26642ZM983.81 9.41406C974.823 8.14088 965.704 8.0912 956.703 9.26642L956.832 10.258C965.744 9.09447 974.772 9.14366 983.67 10.4042L983.81 9.41406ZM1072.5 21.9775L983.81 9.41406L983.67 10.4042L1072.36 22.9676L1072.5 21.9775ZM1094.03 22.6722C1086.85 23.2207 1079.63 22.9877 1072.5 21.9775L1072.36 22.9676C1079.56 23.988 1086.85 24.2233 1094.1 23.6693L1094.03 22.6722ZM1284.93 8.09355L1094.03 22.6722L1094.1 23.6693L1285 9.09065L1284.93 8.09355ZM1300.51 8.11502C1295.32 7.70466 1290.11 7.69748 1284.93 8.09355L1285 9.09065C1290.14 8.69852 1295.3 8.70562 1300.43 9.11191L1300.51 8.11502ZM1442 19.3126L1300.51 8.11502L1300.43 9.11191L1441.92 20.3095L1442 19.3126ZM1521.5 69.9465C1505.05 40.9163 1475.26 21.9452 1442 19.3126L1441.92 20.3095C1474.85 22.9159 1504.34 41.6982 1520.63 70.4395L1521.5 69.9465ZM1574.38 163.253L1521.5 69.9465L1520.63 70.4395L1573.51 163.747L1574.38 163.253ZM1663.81 337.249L1574.39 163.271L1573.5 163.729L1662.92 337.707L1663.81 337.249ZM1611.01 476.793C1666.48 455.111 1691.03 390.22 1663.81 337.249L1662.92 337.707C1689.87 390.15 1665.57 454.395 1610.65 475.861L1611.01 476.793ZM1477.17 529.108L1611.01 476.793L1610.65 475.861L1476.8 528.177L1477.17 529.108ZM1407.95 530.558C1430.46 538.289 1455 537.775 1477.17 529.108L1476.8 528.177C1454.85 536.758 1430.57 537.266 1408.27 529.613L1407.95 530.558ZM1360.08 514.123L1407.95 530.558L1408.27 529.613L1360.4 513.177L1360.08 514.123ZM1278.59 521.732C1303.41 507.626 1333.08 504.855 1360.08 514.123L1360.4 513.177C1333.13 503.816 1303.16 506.615 1278.1 520.862L1278.59 521.732ZM1268.17 527.654L1278.59 521.732L1278.1 520.862L1267.68 526.785L1268.17 527.654ZM1142.15 505.637C1173.46 542.216 1226.32 551.45 1268.17 527.654L1267.68 526.785C1226.24 550.344 1173.91 541.201 1142.91 504.987L1142.15 505.637ZM1094.54 450.011L1142.15 505.637L1142.91 504.987L1095.3 449.361L1094.54 450.011ZM1067.21 427.7C1077.58 433.449 1086.83 441.005 1094.54 450.011L1095.3 449.361C1087.52 440.265 1078.17 432.633 1067.7 426.825L1067.21 427.7ZM961.867 369.273L1067.21 427.7L1067.7 426.825L962.352 368.398L961.867 369.273ZM901.224 357.56C922.169 354.932 943.407 359.035 961.867 369.273L962.352 368.398C943.706 358.057 922.255 353.914 901.099 356.567L901.224 357.56ZM798.086 370.496L901.224 357.56L901.099 356.567L797.962 369.504L798.086 370.496ZM681.995 370.5H798.024V369.5H681.995V370.5ZM653.744 374.595C662.915 371.879 672.43 370.5 681.995 370.5V369.5C672.334 369.5 662.723 370.893 653.46 373.636L653.744 374.595ZM564.642 400.979L653.744 374.595L653.46 373.636L564.358 400.021L564.642 400.979ZM493.089 411.577L564.573 400.995L564.427 400.005L492.942 410.588L493.089 411.577ZM441.486 405.647C457.87 412.112 475.665 414.157 493.089 411.577L492.942 410.588C475.692 413.142 458.074 411.117 441.853 404.717L441.486 405.647ZM377.668 380.468L441.486 405.647L441.853 404.717L378.035 379.537L377.668 380.468ZM325.657 374.737C343.195 371.973 361.153 373.951 377.668 380.468L378.035 379.537C361.354 372.956 343.215 370.957 325.502 373.749L325.657 374.737ZM170.985 399.117L325.657 374.737L325.502 373.749L170.829 398.129L170.985 399.117ZM148.073 405.614C155.423 402.539 163.115 400.358 170.985 399.117L170.829 398.129C162.88 399.382 155.111 401.585 147.687 404.691L148.073 405.614ZM100.985 425.315L148.073 405.614L147.687 404.691L100.599 424.393L100.985 425.315ZM1119.51 259.017C1119.51 190.257 1175.25 134.517 1244.01 134.517V133.517C1174.7 133.517 1118.51 189.705 1118.51 259.017H1119.51ZM1244.01 383.517C1175.25 383.517 1119.51 327.776 1119.51 259.017H1118.51C1118.51 328.328 1174.7 384.517 1244.01 384.517V383.517ZM1368.51 259.017C1368.51 327.776 1312.77 383.517 1244.01 383.517V384.517C1313.33 384.517 1369.51 328.328 1369.51 259.017H1368.51ZM1244.01 134.517C1312.77 134.517 1368.51 190.257 1368.51 259.017H1369.51C1369.51 189.705 1313.33 133.517 1244.01 133.517V134.517Z" fill="black" mask="url(#path-1-inside-1_20_26)"/>
  </g>
  <defs>
    <filter id="filter0_dd_20_26" x="-77.7766" y="0.301773" width="1768.23" height="563.989" filterUnits="userSpaceOnUse" color-interpolation-filters="sRGB">
      <feFlood flood-opacity="0" result="BackgroundImageFix"/>
      <feColorMatrix in="SourceAlpha" type="matrix" values="0 0 0 0 0 0 0 0 0 0 0 0 0 0 0 0 0 0 127 0" result="hardAlpha"/>
      <feOffset/>
      <feGaussianBlur stdDeviation="4"/>
      <feComposite in2="hardAlpha" operator="out"/>
      <feColorMatrix type="matrix" values="0 0 0 0 0 0 0 0 0 0 0 0 0 0 0 0 0 0 0.25 0"/>
      <feBlend mode="normal" in2="BackgroundImageFix" result="effect1_dropShadow_20_26"/>
      <feColorMatrix in="SourceAlpha" type="matrix" values="0 0 0 0 0 0 0 0 0 0 0 0 0 0 0 0 0 0 127 0" result="hardAlpha"/>
      <feOffset dy="8"/>
      <feGaussianBlur stdDeviation="8"/>
      <feComposite in2="hardAlpha" operator="out"/>
      <feColorMatrix type="matrix" values="0 0 0 0 0 0 0 0 0 0 0 0 0 0 0 0 0 0 0.12 0"/>
      <feBlend mode="normal" in2="effect1_dropShadow_20_26" result="effect2_dropShadow_20_26"/>
      <feBlend mode="normal" in="SourceGraphic" in2="effect2_dropShadow_20_26" result="shape"/>
    </filter>
    <linearGradient id="paint0_linear_20_26" x1="140.031" y1="366.517" x2="1623.69" y2="366.517" gradientUnits="userSpaceOnUse">
      <stop stop-color="#86F8FF"/>
      <stop offset="1" stop-color="#060B7C"/>
    </linearGradient>
  </defs>
</svg>